<?xml version="1.0" standalone="no"?>
<!DOCTYPE svg PUBLIC "-//W3C//DTD SVG 20010904//EN"
 "http://www.w3.org/TR/2001/REC-SVG-20010904/DTD/svg10.dtd">
<svg version="1.0" xmlns="http://www.w3.org/2000/svg"
 width="193.000000pt" height="261.000000pt" viewBox="0 0 193.000000 261.000000"
 preserveAspectRatio="xMidYMid meet">

<g transform="translate(0.000000,261.000000) scale(0.100000,-0.100000)"
fill="#000000" stroke="none">
<path d="M1 2480 c0 -71 3 -130 5 -130 1 0 15 11 29 26 30 30 46 24 39 -14 -5
-30 1 -42 31 -58 15 -8 19 -19 17 -43 -2 -17 1 -31 7 -31 6 0 11 13 11 28 0
37 32 76 48 60 7 -7 12 -28 12 -48 l-1 -35 -13 25 c-8 14 -12 29 -9 34 4 5 1
6 -6 1 -7 -4 -11 -18 -8 -31 2 -13 1 -21 -4 -19 -12 8 -15 -37 -4 -72 5 -18
17 -33 25 -33 10 0 11 -3 4 -8 -12 -8 -3 -44 10 -42 15 3 25 -23 16 -41 -6
-11 -4 -23 5 -35 13 -17 14 -17 15 -2 0 28 19 31 32 4 16 -36 29 -32 21 6 -6
29 -5 31 9 18 8 -9 17 -22 21 -30 3 -9 6 -5 6 11 1 33 -15 46 -57 44 -26 -2
-30 1 -21 11 8 10 4 19 -18 39 -22 21 -23 24 -6 16 33 -17 43 -13 43 13 0 27
42 66 71 66 10 0 24 8 31 19 18 25 58 37 58 17 0 -9 7 -13 20 -11 11 2 20 0
20 -6 0 -18 21 -8 32 16 7 15 19 25 33 25 27 0 52 20 57 45 2 11 10 19 17 17
7 -1 19 5 26 15 13 17 14 16 25 -11 6 -16 7 -32 3 -35 -18 -13 -34 -54 -28
-72 8 -24 38 -41 59 -33 9 4 23 1 31 -6 13 -10 19 -10 33 4 10 9 23 16 28 16
15 0 44 39 44 59 0 36 26 31 43 -8 16 -36 16 -40 -4 -80 -16 -34 -18 -46 -8
-57 10 -12 13 -12 23 2 7 9 21 14 32 11 16 -4 16 -5 -4 -6 -31 -1 -18 -21 14
-21 16 0 27 7 33 22 7 19 9 15 15 -21 6 -42 7 -43 42 -39 25 3 33 1 30 -9 -4
-9 4 -13 22 -13 26 0 27 -2 24 -45 -3 -38 0 -50 21 -71 18 -17 26 -21 30 -12
2 7 8 0 12 -16 5 -19 19 -33 41 -42 19 -8 34 -19 34 -24 0 -6 7 -10 15 -10 8
0 15 -7 15 -16 0 -8 5 -12 10 -9 6 3 10 1 10 -5 0 -6 4 -8 10 -5 5 3 17 2 26
-3 10 -6 27 -5 45 1 16 6 31 8 34 5 12 -12 13 -63 1 -71 -6 -5 0 -7 14 -5 15
2 24 9 22 17 -1 7 2 19 8 26 8 10 8 19 -2 34 -7 11 -10 23 -6 26 5 6 59 -14
68 -26 24 -29 98 -29 108 0 3 8 0 11 -7 7 -6 -4 -11 -2 -11 4 0 7 -8 9 -19 5
-13 -4 -20 0 -24 14 -3 14 -11 18 -26 14 -12 -3 -21 -1 -21 6 0 6 6 11 13 12
35 1 -37 17 -78 17 -41 -1 -52 3 -73 28 -21 24 -33 29 -69 29 -31 0 -43 -4
-43 -15 0 -13 -1 -13 -10 0 -6 8 -7 29 -4 45 4 23 3 26 -5 15 -9 -12 -11 -10
-11 10 0 25 -30 60 -50 60 -6 0 -10 9 -10 20 0 11 -4 20 -10 20 -5 0 -10 -7
-10 -15 0 -17 -26 -20 -35 -5 -5 8 -11 7 -21 -1 -8 -6 -17 -9 -20 -6 -9 9 6
27 23 27 12 0 13 3 4 14 -6 7 -9 20 -6 28 5 13 -36 58 -53 58 -4 0 -7 12 -8
28 -2 77 -9 113 -18 98 -8 -11 -13 -4 -25 32 -12 35 -22 48 -41 53 l-25 6 28
13 c37 18 37 53 -1 49 -15 -2 -42 3 -60 10 -34 14 -58 7 -32 -9 12 -8 11 -10
-5 -10 -20 -1 -20 -1 -1 -15 10 -8 23 -12 27 -9 4 2 13 -5 19 -16 11 -20 10
-21 -9 -11 -11 7 -22 7 -25 2 -7 -10 -31 -9 -42 2 -4 4 -2 7 4 7 7 0 12 4 12
9 0 5 -19 2 -41 -6 -50 -17 -121 -24 -113 -11 3 5 14 6 25 3 14 -5 19 -2 19
12 0 10 9 36 20 58 21 42 20 55 -5 35 -20 -17 -32 -4 -18 19 7 11 9 22 5 26
-4 4 -7 12 -7 18 0 7 -20 13 -50 15 -27 1 -45 -1 -39 -5 6 -5 14 -15 17 -23 4
-11 6 -10 6 4 1 20 1 20 16 0 13 -17 14 -17 15 -1 0 21 20 23 20 2 0 -8 -11
-17 -25 -21 -14 -3 -23 -9 -21 -13 3 -4 -7 -7 -22 -8 -24 -2 -24 -1 -7 7 16 7
17 9 3 9 -20 1 -33 -15 -19 -24 6 -3 3 -14 -6 -25 -12 -14 -20 -16 -29 -9 -9
7 -16 1 -25 -24 -9 -26 -17 -33 -31 -29 -12 3 -18 -1 -19 -14 0 -11 -3 -14 -6
-6 -2 6 -11 12 -19 12 -9 0 -12 5 -9 10 3 6 -3 10 -15 10 -20 0 -20 1 -4 25
16 24 16 26 -10 50 -15 14 -31 25 -37 25 -5 0 -9 7 -9 16 0 8 4 13 9 10 5 -3
12 1 15 10 9 23 4 25 -18 9 -13 -10 -17 -23 -14 -44 3 -17 1 -31 -4 -31 -4 0
-8 20 -8 45 l0 45 -180 0 -181 0 2 -130z m410 31 c-8 -5 -11 -16 -8 -26 7 -16
-2 -14 -32 9 -11 9 -9 12 10 17 35 10 46 10 30 0z m-97 -86 c7 -27 6 -29 -9
-14 -9 9 -13 23 -9 33 8 21 9 19 18 -19z m-149 -5 c3 -5 1 -10 -4 -10 -6 0
-11 5 -11 10 0 6 2 10 4 10 3 0 8 -4 11 -10z m45 -10 c0 -5 -7 -10 -15 -10 -8
0 -15 5 -15 10 0 6 7 10 15 10 8 0 15 -4 15 -10z m51 -2 c11 7 24 11 27 8 10
-11 11 -126 1 -126 -6 0 -8 4 -5 9 4 5 -2 8 -11 6 -10 -2 -20 -4 -23 -4 -3 -1
2 -6 10 -11 11 -7 12 -12 3 -21 -13 -13 -57 6 -48 20 2 5 -2 14 -10 21 -8 7
-15 17 -15 22 0 14 27 38 34 31 3 -4 4 9 0 28 -4 25 -3 30 5 19 9 -13 14 -13
32 -2z m198 -27 c-15 -5 -22 6 -14 19 6 9 10 9 16 -1 5 -8 4 -15 -2 -18z
m-287 -33 c-6 -6 -7 0 -4 19 5 21 7 23 10 9 2 -10 0 -22 -6 -28z m768 -189 c0
-6 -4 -7 -10 -4 -5 3 -10 11 -10 16 0 6 5 7 10 4 6 -3 10 -11 10 -16z m-40 1
c0 -5 -2 -10 -4 -10 -3 0 -8 5 -11 10 -3 6 -1 10 4 10 6 0 11 -4 11 -10z m505
-340 c3 -5 1 -10 -4 -10 -6 0 -11 5 -11 10 0 6 2 10 4 10 3 0 8 -4 11 -10z"/>
<path d="M270 2376 c0 -8 4 -17 9 -20 5 -4 7 3 4 14 -6 23 -13 26 -13 6z"/>
<path d="M1000 2590 c0 -5 5 -10 11 -10 5 0 7 5 4 10 -3 6 -8 10 -11 10 -2 0
-4 -4 -4 -10z"/>
<path d="M925 2550 c-3 -5 -1 -10 4 -10 6 0 11 5 11 10 0 6 -2 10 -4 10 -3 0
-8 -4 -11 -10z"/>
<path d="M1055 2540 c-3 -5 -1 -10 4 -10 6 0 11 5 11 10 0 6 -2 10 -4 10 -3 0
-8 -4 -11 -10z"/>
<path d="M1090 2540 c0 -5 5 -10 10 -10 6 0 10 5 10 10 0 6 -4 10 -10 10 -5 0
-10 -4 -10 -10z"/>
<path d="M950 2503 c0 -10 4 -14 8 -8 4 6 11 13 16 18 5 4 2 7 -7 7 -10 0 -17
-8 -17 -17z"/>
<path d="M1045 2501 c3 -5 1 -12 -4 -15 -5 -4 -12 -2 -16 4 -14 23 -25 8 -23
-30 2 -22 8 -38 13 -37 6 2 10 8 10 13 0 19 16 33 31 27 18 -7 35 14 27 34 -3
7 -14 13 -25 13 -10 0 -17 -4 -13 -9z"/>
<path d="M880 2490 c0 -5 6 -10 14 -10 8 0 18 5 21 10 3 6 -3 10 -14 10 -12 0
-21 -4 -21 -10z"/>
<path d="M1156 2367 c3 -10 9 -15 12 -12 3 3 0 11 -7 18 -10 9 -11 8 -5 -6z"/>
<path d="M1185 2350 c-3 -5 1 -10 10 -10 9 0 13 5 10 10 -3 6 -8 10 -10 10 -2
0 -7 -4 -10 -10z"/>
<path d="M1475 2320 c3 -5 8 -10 11 -10 2 0 4 5 4 10 0 6 -5 10 -11 10 -5 0
-7 -4 -4 -10z"/>
<path d="M1130 2310 c0 -5 5 -10 10 -10 6 0 10 5 10 10 0 6 -4 10 -10 10 -5 0
-10 -4 -10 -10z"/>
<path d="M60 2296 c0 -2 7 -9 15 -16 9 -7 15 -8 15 -2 0 5 -7 12 -15 16 -8 3
-15 4 -15 2z"/>
<path d="M1560 2280 c-13 -8 -12 -10 3 -10 9 0 17 5 17 10 0 12 -1 12 -20 0z"/>
<path d="M1651 2274 c0 -11 3 -14 6 -6 3 7 2 16 -1 19 -3 4 -6 -2 -5 -13z"/>
<path d="M97 2247 c-4 -15 -5 -32 -2 -37 3 -6 -1 -7 -9 -4 -9 3 -19 -3 -26
-16 -9 -17 -14 -19 -26 -9 -17 14 -19 12 -28 -23 -5 -21 -3 -28 8 -28 8 0 17
8 20 17 6 15 9 15 16 3 5 -8 6 -18 3 -24 -3 -5 -1 -6 5 -2 6 3 13 -2 15 -11 4
-17 5 -17 6 0 1 23 17 22 24 -3 7 -28 -3 -60 -19 -60 -8 0 -14 -6 -14 -14 0
-18 29 -48 40 -41 5 3 11 -1 13 -7 3 -7 5 22 5 65 -1 49 -5 73 -11 65 -5 -8
-6 -2 -2 17 4 16 11 33 17 36 6 4 8 15 4 25 -7 18 -8 17 -20 -5 -8 -14 -16
-19 -20 -13 -3 6 -1 12 5 14 6 2 9 21 7 43 -3 38 -3 39 -11 12z m3 -223 c0 -8
-4 -12 -10 -9 -5 3 -10 10 -10 16 0 5 5 9 10 9 6 0 10 -7 10 -16z"/>
<path d="M1625 2250 c-8 -24 -25 -27 -25 -4 0 8 -4 13 -10 9 -5 -3 -7 -12 -3
-20 7 -19 -14 -19 -33 0 -16 16 -35 20 -33 8 4 -26 -2 -36 -13 -25 -9 9 -15 9
-25 0 -10 -8 -17 -8 -25 0 -18 18 -25 14 -25 -13 0 -34 -10 -42 -33 -27 -11 7
-20 8 -20 3 0 -5 6 -11 13 -14 9 -3 9 -8 -2 -21 -12 -14 -12 -22 -3 -37 7 -11
8 -19 2 -19 -5 0 -10 -8 -10 -17 0 -11 3 -14 8 -7 4 6 17 7 32 3 16 -4 19 -7
8 -8 -10 -1 -18 -8 -18 -17 0 -14 -3 -14 -15 -4 -8 7 -15 11 -16 9 0 -2 -2
-17 -4 -34 -3 -26 -2 -28 9 -13 18 25 55 13 49 -15 -4 -18 -3 -19 6 -7 9 13
11 13 11 -1 0 -12 8 -16 30 -15 25 1 30 5 30 26 0 14 5 32 11 40 10 15 7 -30
-7 -85 -3 -11 7 3 20 30 14 28 26 58 26 68 0 11 9 21 20 24 10 3 22 14 26 25
5 17 8 18 16 7 13 -20 3 42 -11 69 -9 16 -7 21 7 28 9 4 19 7 22 6 3 0 4 15 2
34 -5 39 -8 42 -17 14z m-142 -213 c-5 -8 -8 -7 -11 1 -2 8 -9 9 -23 2 -24
-13 -25 -2 -2 16 20 14 48 0 36 -19z"/>
<path d="M1794 2197 c4 -66 9 -75 30 -54 14 14 12 55 -4 67 -4 3 -12 14 -18
25 -10 16 -11 10 -8 -38z"/>
<path d="M5 2220 c-3 -5 -1 -10 4 -10 6 0 11 5 11 10 0 6 -2 10 -4 10 -3 0 -8
-4 -11 -10z"/>
<path d="M52 2020 c0 -14 2 -19 5 -12 2 6 2 18 0 25 -3 6 -5 1 -5 -13z"/>
<path d="M672 2018 c-11 -4 -12 -7 -3 -7 9 -1 12 -10 8 -28 -5 -26 -4 -26 9
-9 7 10 11 23 7 29 -3 6 -2 7 4 4 6 -4 18 -1 27 6 14 11 13 12 -9 12 -14 0
-33 -3 -43 -7z"/>
<path d="M1040 2000 c0 -5 5 -10 10 -10 6 0 10 5 10 10 0 6 -4 10 -10 10 -5 0
-10 -4 -10 -10z"/>
<path d="M710 1952 c0 -7 -4 -11 -9 -7 -12 7 -24 -30 -17 -52 4 -13 16 -18 45
-18 21 0 37 3 34 8 -2 4 -20 7 -39 7 -19 0 -34 5 -34 10 0 6 9 10 20 10 22 0
26 16 10 40 -7 11 -10 11 -10 2z"/>
<path d="M491 1917 c-6 -8 -22 -12 -36 -9 -18 3 -25 0 -25 -12 0 -12 7 -14 33
-9 17 3 34 9 37 12 3 3 11 6 19 6 8 0 15 6 17 13 1 7 0 8 -3 2 -3 -8 -9 -8
-18 0 -9 7 -16 6 -24 -3z"/>
<path d="M515 1880 c3 -5 8 -10 11 -10 2 0 4 5 4 10 0 6 -5 10 -11 10 -5 0 -7
-4 -4 -10z"/>
<path d="M890 1876 c0 -2 15 -6 34 -8 19 -2 32 0 30 4 -5 8 -64 12 -64 4z"/>
<path d="M488 1838 c-10 -12 -18 -31 -18 -42 0 -10 -3 -17 -6 -13 -3 3 -17 2
-30 -3 -15 -6 -24 -6 -24 0 0 6 -10 10 -22 10 -38 0 -68 -12 -68 -26 0 -7 -6
-11 -14 -8 -8 3 -21 -4 -29 -16 -13 -18 -16 -19 -27 -5 -9 11 -16 12 -26 5 -9
-8 -15 -6 -24 7 -9 15 -10 12 -5 -14 5 -26 3 -33 -9 -33 -9 0 -17 -6 -18 -12
-3 -30 -6 -54 -7 -70 0 -11 -9 -18 -21 -18 -11 0 -20 -4 -20 -10 0 -5 -11 -12
-25 -16 -44 -11 -32 -45 25 -73 36 -16 50 -29 50 -43 0 -17 3 -18 15 -8 12 10
18 10 30 0 12 -10 15 -10 15 1 0 10 15 14 47 15 35 1 50 7 63 23 9 12 23 23
32 25 22 3 48 26 48 41 0 7 7 16 16 19 8 3 12 2 9 -4 -11 -17 7 -11 21 8 7 9
14 32 14 51 0 29 2 32 15 21 14 -12 19 -7 16 14 -4 19 11 46 21 40 7 -5 9 -1
5 9 -3 9 -1 18 6 20 9 3 8 9 -3 18 -9 8 -22 22 -29 32 -12 15 -11 17 7 17 11
0 23 -8 25 -17 4 -14 5 -13 6 3 1 23 -23 39 -41 28 -7 -5 -9 2 -4 20 8 32 6
32 -16 4z m-229 -134 c17 -19 20 -29 11 -34 -29 -18 -66 13 -54 45 8 21 17 19
43 -11z m41 -12 c0 -7 -4 -10 -10 -7 -5 3 -10 16 -10 28 0 18 2 19 10 7 5 -8
10 -21 10 -28z m166 -99 c-10 -10 -19 5 -10 18 6 11 8 11 12 0 2 -7 1 -15 -2
-18z"/>
<path d="M724 1824 c-9 -36 9 -51 40 -34 23 12 24 14 9 36 -20 31 -41 30 -49
-2z"/>
<path d="M862 1841 c-10 -6 -11 -13 -1 -34 15 -32 25 -34 39 -6 9 15 8 24 -1
35 -13 16 -19 17 -37 5z"/>
<path d="M662 1833 c0 -5 -1 -15 -5 -23 -3 -8 -7 -29 -9 -46 -3 -23 -1 -31 9
-27 7 3 13 13 13 23 0 10 7 23 15 30 11 9 12 16 2 31 -12 19 -29 26 -25 12z"/>
<path d="M1000 1810 c0 -5 -7 -10 -15 -10 -8 0 -15 -5 -15 -11 0 -5 5 -7 11
-3 8 5 8 1 0 -14 -9 -17 -8 -20 7 -18 11 2 18 13 19 34 1 18 -1 32 -3 32 -2 0
-4 -4 -4 -10z"/>
<path d="M836 1791 c-4 -5 -2 -12 3 -15 5 -4 12 -2 15 3 4 5 2 12 -3 15 -5 4
-12 2 -15 -3z"/>
<path d="M770 1779 c0 -5 5 -7 10 -4 6 3 10 8 10 11 0 2 -4 4 -10 4 -5 0 -10
-5 -10 -11z"/>
<path d="M785 1760 c-3 -5 -1 -10 4 -10 6 0 11 5 11 10 0 6 -2 10 -4 10 -3 0
-8 -4 -11 -10z"/>
<path d="M810 1760 c0 -5 5 -10 10 -10 6 0 10 5 10 10 0 6 -4 10 -10 10 -5 0
-10 -4 -10 -10z"/>
<path d="M680 1745 c0 -8 4 -15 10 -15 5 0 7 7 4 15 -4 8 -8 15 -10 15 -2 0
-4 -7 -4 -15z"/>
<path d="M851 1744 c0 -11 3 -14 6 -6 3 7 2 16 -1 19 -3 4 -6 -2 -5 -13z"/>
<path d="M165 1731 c-3 -5 -1 -12 5 -16 5 -3 10 1 10 9 0 18 -6 21 -15 7z"/>
<path d="M743 1693 c-7 -2 -13 -9 -13 -15 0 -6 7 -7 16 -4 8 3 12 2 9 -4 -4
-6 9 -10 29 -10 l36 0 -20 20 c-20 20 -34 23 -57 13z"/>
<path d="M830 1660 c0 -13 11 -13 30 0 12 8 11 10 -7 10 -13 0 -23 -4 -23 -10z"/>
<path d="M720 1598 c0 -36 64 -65 117 -52 38 10 75 34 70 48 -4 12 -187 16
-187 4z"/>
<path d="M573 1548 c-12 -16 -25 -47 -28 -68 -1 -8 -10 -37 -19 -65 -25 -71
-19 -124 18 -157 l29 -27 -13 -58 c-11 -52 -14 -56 -23 -35 -5 12 -14 22 -20
22 -5 0 -6 7 -3 16 3 8 -1 22 -10 31 -8 9 -13 22 -10 29 7 17 -2 18 -37 2 -15
-7 -27 -19 -27 -26 0 -8 -10 -13 -22 -12 -13 1 -28 2 -34 1 -16 -1 -13 -31 3
-31 7 0 13 5 13 10 0 6 7 10 15 10 8 0 15 -5 15 -10 0 -7 7 -7 21 0 11 6 25 9
32 6 7 -2 4 -5 -5 -5 -19 -1 -26 -21 -8 -21 6 0 10 -7 10 -15 0 -15 -10 -19
-42 -16 -12 2 -18 -5 -18 -18 0 -12 -5 -21 -11 -21 -5 0 -7 5 -3 11 5 9 -1 10
-22 4 -51 -15 -107 -11 -136 9 -22 16 -25 23 -17 43 7 18 5 25 -7 30 -8 3 -20
1 -27 -6 -16 -16 -37 -14 -37 4 0 15 -38 40 -47 31 -4 -3 8 -19 25 -36 53 -50
46 -55 -70 -50 l-58 2 1 -59 c0 -32 3 -52 6 -45 6 14 33 16 33 2 0 -5 -5 -10
-11 -10 -6 0 -4 -7 5 -15 8 -8 19 -15 25 -15 15 0 14 -33 -1 -48 -9 -9 -8 -12
4 -12 18 0 27 -35 17 -70 -7 -24 -7 -24 -8 -2 -1 27 -21 30 -21 2 0 -36 -36
-19 -42 20 -2 14 -5 -22 -6 -79 -2 -75 1 -107 10 -113 10 -6 10 -8 1 -8 -10 0
-13 -75 -13 -340 l0 -340 965 0 965 0 0 280 c0 180 -4 280 -10 280 -13 0 -13
47 0 55 5 3 10 37 10 76 0 55 -3 69 -15 69 -8 0 -15 5 -15 11 0 5 4 8 9 5 12
-8 8 67 -4 76 -14 11 -27 10 -20 -2 8 -13 -42 -43 -60 -36 -9 3 -18 -1 -21 -9
-10 -24 -37 -19 -29 5 5 14 1 22 -13 28 -17 6 -18 9 -6 20 9 8 14 9 14 2 0
-27 20 5 21 33 1 18 3 24 6 15 4 -14 15 -18 59 -18 30 0 53 4 50 9 -3 4 -17 6
-31 3 -15 -2 -25 0 -25 7 0 7 -5 9 -10 6 -5 -3 -10 0 -10 8 0 8 7 18 16 21 13
5 14 9 5 20 -9 10 -8 15 3 19 9 4 18 2 21 -3 4 -6 15 -10 26 -10 26 0 20 24
-7 29 -44 8 -59 41 -19 41 14 0 25 5 25 10 0 15 -57 12 -63 -2 -4 -10 -7 -10
-14 -1 -11 15 -41 21 -110 22 -40 1 -53 5 -53 16 0 8 -5 15 -11 15 -6 0 -9 -6
-6 -14 8 -20 -42 -28 -67 -11 -12 9 -25 11 -36 5 -13 -7 -16 -3 -18 26 -3 36
7 43 30 21 7 -7 25 -20 41 -30 26 -17 27 -17 27 3 0 24 17 26 48 4 12 -8 27
-12 34 -8 8 5 6 10 -8 16 -13 5 -8 6 14 2 33 -6 38 0 23 25 -7 11 -13 10 -34
-4 -24 -16 -27 -15 -68 10 -35 22 -46 25 -65 16 -13 -6 -30 -8 -38 -5 -8 3
-17 1 -21 -5 -3 -6 -22 -11 -42 -11 -40 0 -103 -34 -103 -56 0 -17 -2 -17 -35
-2 -26 12 -34 43 -12 51 7 3 6 6 -5 6 -9 1 -29 -4 -45 -10 -15 -6 -53 -12 -83
-13 -48 -3 -76 -9 -102 -23 -4 -2 -5 2 -2 10 3 8 1 18 -5 22 -6 3 -11 10 -11
16 0 5 9 0 21 -12 15 -15 24 -18 32 -10 6 6 20 11 30 11 17 0 16 3 -7 21 -14
11 -26 28 -26 38 0 9 -7 27 -16 40 -12 17 -17 52 -19 143 -3 161 -11 170 -88
92 -32 -32 -57 -64 -57 -70 0 -7 -5 -25 -11 -41 l-11 -28 -11 25 c-10 25 -10
25 -17 -10 l-7 -35 -4 34 c-2 19 -10 36 -18 39 -10 3 -12 -6 -9 -39 5 -55 -9
-74 -34 -45 -10 13 -17 16 -18 8 0 -7 -4 -10 -10 -7 -6 3 -10 -5 -10 -19 0
-13 6 -27 13 -30 6 -2 2 -4 -10 -2 -29 3 -72 82 -75 134 -1 33 -2 32 -8 -13
l-7 -50 -2 50 c-1 41 -4 47 -12 32 -6 -10 -8 -30 -4 -45 4 -15 3 -23 -1 -19
-5 4 -11 34 -15 65 -7 64 -39 154 -55 159 -6 2 -15 -2 -21 -9z m417 -246 c0
-11 -30 -37 -52 -45 -32 -11 -28 11 5 32 35 22 47 26 47 13z m-119 -41 c-7 -5
-17 -15 -22 -22 -6 -10 -8 -7 -6 9 1 15 8 22 22 22 15 0 17 -2 6 -9z m179 -59
c0 -15 -2 -15 -10 -2 -13 20 -13 33 0 25 6 -3 10 -14 10 -23z m-305 -30 c-3
-3 -11 0 -18 7 -9 10 -8 11 6 5 10 -3 15 -9 12 -12z m15 -22 c8 -5 11 -10 5
-10 -5 0 -17 5 -25 10 -8 5 -10 10 -5 10 6 0 17 -5 25 -10z m75 -37 c-3 -21
-2 -32 1 -25 3 6 10 12 15 12 6 0 7 -5 4 -10 -4 -6 -3 -36 1 -68 7 -56 8 -56
16 -22 4 19 7 52 6 72 -1 21 2 41 7 45 4 5 5 0 2 -9 -4 -11 -1 -18 7 -18 8 0
11 -11 9 -32 -2 -18 0 -27 3 -19 5 11 8 11 15 0 6 -10 9 -11 9 -1 0 6 5 12 10
12 6 0 10 -6 10 -14 0 -8 9 -18 20 -21 13 -4 20 -15 20 -30 0 -13 3 -30 6 -39
4 -10 1 -16 -9 -16 -13 0 -13 -5 -4 -30 12 -32 10 -38 -19 -43 -10 -2 -29 -8
-41 -15 -33 -18 -61 -15 -68 9 -4 12 -10 17 -14 12 -3 -6 -19 -11 -35 -11 -15
0 -31 -4 -35 -11 -13 -20 -121 0 -121 23 0 6 -7 2 -15 -8 -14 -18 -15 -17 -14
25 1 24 5 55 9 69 7 21 8 18 10 -20 l2 -45 16 57 c9 31 20 59 24 63 3 4 0 25
-7 46 -8 22 -10 37 -6 34 5 -3 12 1 15 7 5 10 7 10 12 -1 5 -11 8 -11 15 0 6
9 7 1 3 -21 -5 -33 -5 -34 10 -16 9 11 16 26 16 33 0 7 7 13 15 13 8 0 15 5
15 10 0 19 25 39 48 40 21 0 22 -3 17 -37z m772 6 c2 -16 -1 -19 -9 -11 -5 5
-7 15 -4 21 10 15 12 14 13 -10z m-140 -9 c-1 -12 -8 -20 -19 -20 -18 0 -24
20 -11 33 14 14 32 6 30 -13z m-967 -10 c8 -5 13 -10 10 -11 -3 0 -13 -2 -22
-4 -10 -2 -18 3 -18 11 0 16 9 18 30 4z m1092 -47 c22 -20 24 -43 3 -43 -8 0
-15 7 -15 15 0 12 -4 13 -19 6 -16 -9 -17 -7 -13 14 5 29 18 32 44 8z m-1095
-20 c4 -9 2 -18 -5 -21 -6 -2 -9 -9 -6 -17 3 -7 1 -23 -6 -34 -6 -12 -7 -21
-1 -21 5 0 7 -9 4 -20 -6 -22 -71 -40 -82 -22 -4 6 -22 7 -49 2 -23 -4 -42 -5
-42 -1 0 3 -4 -1 -10 -9 -11 -18 -19 -11 -22 21 -2 13 -7 28 -13 32 -5 4 4 5
20 2 17 -3 24 -2 18 1 -18 8 -16 25 2 18 8 -3 21 1 30 9 12 12 22 13 48 5 60
-19 73 -20 86 -5 10 13 9 15 -8 10 -12 -3 -21 -1 -21 6 0 6 8 11 18 11 14 0
15 2 2 10 -9 5 -17 5 -20 -1 -4 -5 -18 -8 -33 -7 -22 2 -24 5 -14 18 20 25 30
30 65 30 21 0 35 -6 39 -17z m838 -4 c8 -23 124 -62 188 -62 43 -1 46 -2 25
-13 -12 -7 -38 -11 -58 -9 -44 4 -140 36 -140 47 0 4 -7 8 -15 8 -12 0 -35 28
-35 43 0 13 31 1 35 -14z m-118 -22 c16 -18 35 -31 41 -29 18 6 15 -15 -3 -22
-9 -3 -18 1 -21 9 -4 8 -12 15 -19 15 -11 0 -45 41 -45 55 0 14 21 2 47 -28z
m463 18 c0 -8 -4 -15 -10 -15 -5 0 -7 7 -4 15 4 8 8 15 10 15 2 0 4 -7 4 -15z
m140 -103 c0 -15 -2 -15 -10 -2 -13 20 -13 33 0 25 6 -3 10 -14 10 -23z m-526
-6 c31 4 31 4 4 -5 -32 -11 -71 -3 -62 11 4 6 10 6 17 -1 5 -5 24 -8 41 -5z
m-917 -42 c-3 -3 -12 -4 -19 -1 -8 3 -5 6 6 6 11 1 17 -2 13 -5z m630 -30 c-3
-3 -12 -4 -19 -1 -8 3 -5 6 6 6 11 1 17 -2 13 -5z m425 -9 c9 4 29 -7 49 -24
39 -36 34 -40 -13 -11 -18 11 -37 20 -43 20 -5 0 4 -9 21 -19 34 -21 51 -41
36 -41 -5 0 -15 7 -22 15 -7 8 -18 15 -24 15 -17 0 -58 45 -50 53 4 4 13 2 19
-3 7 -6 19 -8 27 -5z m-582 -11 c0 -2 -7 -4 -15 -4 -8 0 -15 4 -15 10 0 5 7 7
15 4 8 -4 15 -8 15 -10z m510 -30 c0 -13 -43 -23 -64 -14 -33 12 -47 6 -69
-28 l-17 -27 6 30 c14 66 78 98 122 61 12 -11 22 -21 22 -22z m540 16 c0 -5
-2 -10 -4 -10 -3 0 -8 5 -11 10 -3 6 -1 10 4 10 6 0 11 -4 11 -10z m-496 -42
c8 -5 7 -8 -1 -8 -17 0 -18 -126 -1 -136 15 -10 -19 -35 -38 -27 -18 7 -18 37
3 104 9 30 16 65 15 79 0 14 2 19 5 10 3 -8 11 -18 17 -22z m136 -22 c0 -18
-1 -18 -19 -2 -16 14 -17 21 -8 31 14 15 27 1 27 -29z m-90 19 c10 -12 10 -15
-4 -15 -9 0 -16 7 -16 15 0 8 2 15 4 15 2 0 9 -7 16 -15z m-1370 -44 c0 -12
-21 -19 -37 -13 -22 8 -14 22 12 22 14 0 25 -4 25 -9z m1214 3 c23 -9 19 -31
-6 -38 -27 -6 -43 7 -35 28 7 17 16 19 41 10z m215 -18 c10 -12 8 -17 -8 -25
-29 -16 -41 -14 -41 7 0 34 28 43 49 18z m38 -8 c-3 -8 -6 -5 -6 6 -1 11 2 17
5 13 3 -3 4 -12 1 -19z m-327 -13 c0 -8 -4 -15 -10 -15 -5 0 -10 7 -10 15 0 8
5 15 10 15 6 0 10 -7 10 -15z m20 -36 c0 -11 -4 -17 -10 -14 -5 3 -10 13 -10
21 0 8 5 14 10 14 6 0 10 -9 10 -21z m-44 -55 c-4 -9 -9 -15 -11 -12 -3 3 -3
13 1 22 4 9 9 15 11 12 3 -3 3 -13 -1 -22z m123 -3 c-15 -5 -22 6 -14 19 6 9
10 9 16 -1 5 -8 4 -15 -2 -18z m-79 -11 c0 -5 -5 -10 -11 -10 -5 0 -7 5 -4 10
3 6 8 10 11 10 2 0 4 -4 4 -10z m36 -57 l-6 -28 19 23 c24 28 31 28 31 1 0
-14 -5 -19 -14 -16 -8 3 -17 -2 -21 -11 -6 -16 -7 -16 -16 1 -6 9 -7 26 -4 37
10 30 18 24 11 -7z m69 8 c3 -5 1 -12 -5 -16 -5 -3 -10 1 -10 9 0 18 6 21 15
7z m121 -31 c3 -22 0 -30 -9 -27 -6 2 -11 10 -9 16 1 6 -2 11 -8 11 -5 0 -10
-12 -10 -26 0 -14 -4 -23 -9 -20 -9 6 -5 65 5 75 3 3 9 -1 14 -9 8 -12 10 -12
10 4 0 29 12 11 16 -24z m18 24 c3 -8 2 -12 -4 -9 -6 3 -10 10 -10 16 0 14 7
11 14 -7z m-104 -9 c0 -8 -4 -15 -10 -15 -5 0 -10 7 -10 15 0 8 5 15 10 15 6
0 10 -7 10 -15z m30 -6 c0 -5 -4 -9 -10 -9 -5 0 -10 7 -10 16 0 8 5 12 10 9 6
-3 10 -10 10 -16z m-214 -47 c0 -9 6 -17 14 -17 20 -1 40 -14 40 -26 0 -6 -6
-7 -12 -3 -8 4 -10 3 -5 -2 5 -5 12 -9 15 -10 4 0 20 -6 35 -12 43 -18 105
-26 119 -15 7 6 29 13 49 17 34 6 74 39 97 81 10 18 11 17 12 -11 0 -39 -34
-70 -108 -95 -68 -23 -85 -24 -153 -2 -56 18 -146 94 -134 113 9 14 33 1 31
-18z m114 8 c0 -5 -4 -10 -10 -10 -5 0 -10 5 -10 10 0 6 5 10 10 10 6 0 10 -4
10 -10z m-25 -49 c3 -5 1 -12 -4 -15 -5 -3 -11 1 -15 9 -6 16 9 21 19 6z"/>
<path d="M820 969 c0 -24 5 -51 10 -59 6 -10 7 3 3 40 -7 69 -13 77 -13 19z"/>
<path d="M791 974 c0 -11 3 -14 6 -6 3 7 2 16 -1 19 -3 4 -6 -2 -5 -13z"/>
<path d="M280 919 c0 -5 5 -7 10 -4 6 3 10 8 10 11 0 2 -4 4 -10 4 -5 0 -10
-5 -10 -11z"/>
<path d="M35 1500 c-3 -5 1 -13 10 -16 22 -9 29 1 11 15 -10 8 -16 9 -21 1z"/>
<path d="M1106 1494 c-8 -22 -8 -23 9 -20 23 3 27 12 11 25 -11 9 -15 8 -20
-5z"/>
<path d="M90 1475 c0 -9 9 -15 23 -14 17 1 18 2 4 6 -9 2 -15 9 -12 14 4 5 1
9 -4 9 -6 0 -11 -7 -11 -15z"/>
<path d="M144 1440 c5 -26 3 -30 -17 -30 -12 0 -17 -4 -12 -8 6 -4 17 -20 25
-36 14 -27 15 -28 18 -8 3 20 10 22 65 22 49 1 58 3 44 11 -10 6 -40 9 -66 7
l-48 -3 5 38 c3 26 1 37 -8 37 -9 0 -11 -9 -6 -30z"/>
<path d="M45 1440 c-3 -5 1 -10 9 -10 9 0 16 5 16 10 0 6 -4 10 -9 10 -6 0
-13 -4 -16 -10z"/>
<path d="M92 1415 c0 -16 2 -22 5 -12 2 9 2 23 0 30 -3 6 -5 -1 -5 -18z"/>
<path d="M335 1380 c-9 -15 5 -52 18 -47 19 6 21 57 3 57 -8 0 -18 -5 -21 -10z"/>
<path d="M765 1360 c-3 -5 -1 -18 4 -27 9 -16 10 -14 11 10 0 28 -5 34 -15 17z"/>
<path d="M115 1330 c3 -5 11 -10 16 -10 6 0 7 5 4 10 -3 6 -11 10 -16 10 -6 0
-7 -4 -4 -10z"/>
<path d="M1500 1239 c0 -15 18 -19 23 -6 3 8 -1 14 -9 14 -8 0 -14 -4 -14 -8z"/>
<path d="M1431 1231 c-7 -5 -9 -11 -5 -14 5 -3 15 1 22 9 14 16 5 18 -17 5z"/>
<path d="M1170 1212 c-26 -18 -40 -47 -18 -39 7 2 22 1 33 -3 17 -7 20 -3 21
26 1 38 -1 39 -36 16z"/>
<path d="M1300 1210 c-13 -8 -13 -11 2 -26 15 -15 16 -14 15 10 -1 14 -2 26
-2 26 0 0 -7 -5 -15 -10z"/>
<path d="M1788 1183 c7 -3 16 -2 19 1 4 3 -2 6 -13 5 -11 0 -14 -3 -6 -6z"/>
<path d="M1755 1160 c-3 -6 1 -7 9 -4 18 7 21 14 7 14 -6 0 -13 -4 -16 -10z"/>
<path d="M1776 1145 c-16 -12 -17 -15 -4 -15 9 0 18 7 22 15 7 18 6 18 -18 0z"/>
<path d="M1886 1125 c4 -8 7 -15 9 -15 2 0 5 7 9 15 3 9 0 15 -9 15 -9 0 -12
-6 -9 -15z"/>
<path d="M1778 1088 c6 -6 18 -8 28 -6 14 3 12 5 -9 10 -19 3 -25 2 -19 -4z"/>
<path d="M6 974 c-13 -35 -6 -47 13 -23 18 23 19 39 1 39 -4 0 -11 -7 -14 -16z"/>
<path d="M1806 871 c-4 -5 1 -8 9 -7 21 3 31 16 12 16 -9 0 -18 -4 -21 -9z"/>
</g>
</svg>
